<svg width="48" height="48" viewBox="0 0 48 48" fill="none" xmlns="http://www.w3.org/2000/svg">
<path d="M4 8V36L13.6 28.8C14.2916 28.2793 15.1343 27.9984 16 28H32C34.2091 28 36 26.2091 36 24V8C36 5.79086 34.2091 4 32 4H8C5.79086 4 4 5.79086 4 8ZM8 28V8H32V24H14.668C13.8021 23.9977 12.9593 24.2786 12.268 24.8L8 28Z" fill="#2E3A59"/>
<path d="M44 44V18C44 15.7909 42.2091 14 40 14V36L35.732 32.8C35.0407 32.2786 34.1979 31.9977 33.332 32H14C14 34.2091 15.7909 36 18 36H32C32.8657 35.9984 33.7084 36.2793 34.4 36.8L44 44Z" fill="#2E3A59"/>
</svg>
