<svg width="100" height="100" viewBox="0 0 49 49" fill="none" xmlns="http://www.w3.org/2000/svg">
<path d="M24.4795 44.9167C13.2064 44.9054 4.07575 35.7596 4.08326 24.4864C4.09077 13.2133 13.2336 4.07959 24.5067 4.08334C35.7799 4.0871 44.9166 13.2268 44.9166 24.5C44.9098 35.781 35.7605 44.9212 24.4795 44.9167ZM8.16659 24.8512C8.26319 33.837 15.6005 41.057 24.5868 41.0089C33.573 40.9604 40.8323 33.662 40.8323 24.6756C40.8323 15.6892 33.573 8.39079 24.5868 8.34225C15.6005 8.29418 8.26319 15.5141 8.16659 24.5V24.8512ZM26.5416 34.7083H22.4583V30.625H26.5416V34.7083ZM26.5416 26.5417H22.4583V14.2917H26.5416V26.5417Z" fill="#2E3A59"/>
</svg>
